<?xml version="1.0" standalone="no"?>
<!DOCTYPE svg PUBLIC "-//W3C//DTD SVG 20010904//EN"
 "http://www.w3.org/TR/2001/REC-SVG-20010904/DTD/svg10.dtd">
<svg version="1.0" xmlns="http://www.w3.org/2000/svg"
 width="700.000000pt" height="532.000000pt" viewBox="0 0 700.000000 532.000000"
 preserveAspectRatio="xMidYMid meet">

<g transform="translate(0.000000,532.000000) scale(0.100000,-0.100000)"
fill="#000000" stroke="none">
<path d="M0 2660 l0 -2660 3500 0 3500 0 0 2660 0 2660 -3500 0 -3500 0 0
-2660z m4445 713 c193 -333 352 -610 354 -615 2 -5 -12 -37 -30 -71 -35 -68
-618 -1079 -656 -1140 l-23 -37 -711 2 -711 3 -295 510 c-255 440 -334 579
-399 704 -11 21 -11 29 5 55 11 17 153 263 316 546 164 283 315 545 337 583
l39 67 712 0 712 0 350 -607z m864 -76 c171 -296 311 -542 311 -546 0 -14
-109 -209 -342 -611 -129 -223 -245 -424 -258 -447 -13 -24 -28 -43 -34 -43
-6 0 -60 85 -119 189 -99 172 -108 191 -96 213 6 12 78 138 159 278 158 274
230 406 230 421 0 6 -85 157 -189 338 -105 180 -195 339 -201 352 -10 23 -1
43 101 218 61 106 115 189 119 184 5 -4 148 -250 319 -546z m-3415 359 c58
-101 106 -190 106 -196 0 -7 -85 -159 -189 -339 -103 -179 -193 -336 -200
-349 -15 -28 -19 -19 216 -428 95 -166 173 -308 173 -314 0 -23 -212 -381
-224 -377 -11 4 -504 850 -592 1015 l-44 84 301 521 c343 594 327 567 338 567
5 0 57 -83 115 -184z"/>
<path d="M2723 3893 c2 -5 23 -41 46 -80 l42 -73 563 0 c434 0 566 3 578 13 9
6 33 42 53 80 l37 67 -662 0 c-364 0 -659 -3 -657 -7z"/>
<path d="M2756 3337 c-77 -133 -184 -319 -238 -413 l-99 -172 38 -74 c21 -41
128 -230 238 -421 l200 -347 486 0 486 0 206 358 c214 371 267 468 267 483 0
5 -107 194 -237 419 l-237 410 -485 0 -486 0 -139 -243z"/>
<path d="M2766 1673 l-45 -78 656 -3 c361 -1 658 0 661 2 2 3 -16 38 -40 78
l-44 73 -572 3 -571 2 -45 -77z"/>
</g>
</svg>
